#!OML:ASF X:\für Bonn\!DataBase\2005_08_10_Bjorn_Final\c3d\bjorn.ASF
:FULLY-SPECIFIED
:DEGREES
381
root 0.555121 2.16802 17.7888 -430.04 -170.961 -712.131
lowerback 40.6387 4.20556 9.62246
upperback 27.4608 -4.08707 4.37479
thorax 12.1391 -7.02218 -0.385419
lowerneck 19.2292 0.263806 -3.2474
upperneck 14.0539 -2.62233 -4.33235
head 1.34545 -2.46652 -0.750818
rclavicle -9.93923e-017 4.81059e-014
rhumerus -252.756 -211.783 79.2673
rradius 74.0132
rwrist -78.1695
rhand -5.21318 -35.5699
rfingers 7.12502
rthumb 20.5886 -64.498
lclavicle -9.93923e-017 4.81059e-014
lhumerus -79.692 -22.4152 110.177
lradius 76.6648
lwrist 61.5296
lhand -35.2168 -326.493
lfingers 7.12502
lthumb -8.35403 63.3221
rfemur -87.5589 -56.3352 7.20665
rtibia 136.3
rfoot 26.7438 25.7245
rtoes 0.693204
lfemur 133.788 165.503 158.525
ltibia 50.4176
lfoot 16.969 9.92084
ltoes -4.42253
382
root 0.547903 2.16698 17.7847 -430.004 -171.026 -712.066
lowerback 40.7 4.19584 9.6241
upperback 27.4471 -4.10049 4.33949
thorax 12.1006 -7.0295 -0.415545
lowerneck 19.321 0.191698 -3.2011
upperneck 13.9261 -2.71025 -4.22632
head 1.29014 -2.49842 -0.717103
rclavicle 1.99779e-014 1.86858e-014
rhumerus -252.432 -212.15 79.5832
rradius 73.917
rwrist -77.667
rhand -4.57425 -35.1814
rfingers 7.12502
rthumb 21.2024 -64.0419
lclavicle 1.99779e-014 1.86858e-014
lhumerus -79.9275 -22.9035 110.31
lradius 76.8098
lwrist 62.43
lhand -34.5009 -326.108
lfingers 7.12502
lthumb -7.66308 63.7336
rfemur -87.6223 -56.1959 7.30194
rtibia 136.322
rfoot 26.692 25.7492
rtoes 0.490716
lfemur 134.246 165.534 158.575
ltibia 49.5281
lfoot 17.0089 10.1875
ltoes -4.80364
383
root 0.541486 2.16709 17.7792 -429.973 -171.112 -711.999
lowerback 40.7703 4.19506 9.65704
upperback 27.4401 -4.09876 4.31425
thorax 12.0712 -7.02828 -0.455199
lowerneck 19.3151 0.103781 -3.11483
upperneck 13.9087 -2.8095 -4.15846
head 1.28457 -2.54097 -0.704868
rclavicle 1.33186e-014 -3.18055e-015
rhumerus -252.032 -212.423 79.9781
rradius 73.8512
rwrist -77.1717
rhand -4.00701 -34.6571
rfingers 7.12502
rthumb 21.7472 -63.4554
lclavicle 1.33186e-014 -3.18055e-015
lhumerus -80.1728 -23.4567 110.424
lradius 76.9907
lwrist 63.3543
lhand -33.6883 -325.582
lfingers 7.12502
lthumb -6.87864 64.2865
rfemur -87.6766 -56.1315 7.43795
rtibia 136.355
rfoot 26.5554 25.829
rtoes 0.0790718
lfemur 134.712 165.528 158.635
ltibia 48.6192
lfoot 17.1021 10.3057
ltoes -5.23652
384
root 0.535215 2.16637 17.7738 -429.938 -171.193 -711.938
lowerback 40.8171 4.21689 9.66995
upperback 27.4658 -4.10188 4.31731
thorax 12.0933 -7.04374 -0.461185
lowerneck 19.1995 0.0107717 -3.06861
upperneck 13.9272 -2.91135 -4.10647
head 1.30717 -2.58683 -0.693056
rclavicle -1.07344e-014 -2.14687e-014
rhumerus -251.523 -212.63 80.5481
rradius 73.8783
rwrist -76.6509
rhand -3.51227 -33.903
rfingers 7.12502
rthumb 22.2223 -62.6455
lclavicle -1.07344e-014 -2.14687e-014
lhumerus -80.3463 -24.088 110.499
lradius 77.2055
lwrist 64.5489
lhand -32.7788 -324.876
lfingers 7.12502
lthumb -6.00062 65.0194
rfemur -87.7581 -56.0176 7.55857
rtibia 136.396
rfoot 26.4771 25.8713
rtoes -0.179702
lfemur 135.181 165.545 158.693
ltibia 47.6892
lfoot 17.1524 10.4278
ltoes -5.63518
385
root 0.52907 2.1664 17.7679 -429.912 -171.293 -711.872
lowerback 40.8765 4.23406 9.7009
upperback 27.4964 -4.11288 4.31947
thorax 12.1193 -7.06428 -0.476089
lowerneck 19.0772 -0.0797503 -2.98801
upperneck 13.9447 -3.00115 -4.09119
head 1.32941 -2.62496 -0.699214
rclavicle -1.30204e-014 -1.23246e-014
rhumerus -250.939 -212.751 81.2601
rradius 74.0107
rwrist -76.0497
rhand -3.193 -32.8808
rfingers 7.12502
rthumb 22.5287 -61.5865
lclavicle -1.30204e-014 -1.23246e-014
lhumerus -80.4621 -24.7227 110.455
lradius 77.4348
lwrist 65.9794
lhand -31.6583 -324.04
lfingers 7.12502
lthumb -4.91881 65.8834
rfemur -87.799 -55.9199 7.68938
rtibia 136.427
rfoot 26.3493 25.9206
rtoes -0.473619
lfemur 135.665 165.545 158.766
ltibia 46.7391
lfoot 17.2514 10.4124
ltoes -6.29383
386
root 0.522905 2.16547 17.762 -429.869 -171.373 -711.804
lowerback 40.9001 4.25786 9.72466
upperback 27.5397 -4.122 4.32801
thorax 12.1724 -7.08376 -0.485265
lowerneck 18.9206 -0.177312 -2.93592
upperneck 13.9776 -3.10351 -4.04842
head 1.36255 -2.67055 -0.692316
rclavicle -2.06736e-014 3.81667e-014
rhumerus -250.215 -212.722 82.217
rradius 74.2973
rwrist -75.419
rhand -3.10438 -32.0139
rfingers 7.12502
rthumb 22.6138 -60.7093
lclavicle -2.06736e-014 3.81667e-014
lhumerus -80.5527 -25.4446 110.412
lradius 77.6355
lwrist 67.4516
lhand -30.4641 -323.559
lfingers 7.12502
lthumb -3.76565 66.3874
rfemur -87.8946 -55.854 7.82843
rtibia 136.472
rfoot 26.2806 25.9686
rtoes -0.706028
lfemur 136.135 165.562 158.812
ltibia 45.7636
lfoot 17.2853 10.3526
ltoes -7.146
